<svg xmlns="http://www.w3.org/2000/svg" viewBox="0 0 640 400" role="img" aria-label="Bull Put Spread 損益圖:收 3,最大損失封頂 7,兩平 97" font-family="system-ui, -apple-system, sans-serif"><defs><marker id="aI" viewBox="0 0 10 10" refX="8" refY="5" markerWidth="7" markerHeight="7" orient="auto-start-reverse"><path d="M0 0L10 5L0 10z" fill="#8b949e"/></marker><marker id="aG" viewBox="0 0 10 10" refX="8" refY="5" markerWidth="7" markerHeight="7" orient="auto-start-reverse"><path d="M0 0L10 5L0 10z" fill="#2ea043"/></marker><marker id="aR" viewBox="0 0 10 10" refX="8" refY="5" markerWidth="7" markerHeight="7" orient="auto-start-reverse"><path d="M0 0L10 5L0 10z" fill="#f85149"/></marker></defs><text x="320" y="24" font-size="16" fill="#8b949e" text-anchor="middle" font-weight="600">Bull Put Spread 多頭賣權價差(賣 100P / 買 90P,收 3)</text><text x="320" y="42" font-size="12" fill="#8b949e" text-anchor="middle">收 3;最大損失=價差寬 10−權利金 3=7,風險封頂;兩平=100−3=97</text><line x1="64" y1="125" x2="610" y2="125" stroke="#2ea043" stroke-width="1" stroke-dasharray="4 4" opacity=".55"/><text x="56" y="130" font-size="16" fill="#2ea043" text-anchor="end" font-weight="600">+3</text><line x1="64" y1="267" x2="610" y2="267" stroke="#f85149" stroke-width="1" stroke-dasharray="4 4" opacity=".55"/><text x="56" y="272" font-size="16" fill="#f85149" text-anchor="end" font-weight="600">−7</text><line x1="227.8" y1="54" x2="227.8" y2="338" stroke="#8b949e" stroke-width="1" stroke-dasharray="4 4"/><text x="227.8" y="355" font-size="13" fill="#8b949e" text-anchor="middle">K1=90</text><line x1="337" y1="54" x2="337" y2="338" stroke="#8b949e" stroke-width="1" stroke-dasharray="4 4"/><text x="337" y="355" font-size="13" fill="#8b949e" text-anchor="middle">K2=100</text><polygon points="64,267 227.8,267 304.2,167.6 304.2,167.6 64,167.6" fill="rgba(248,81,73,.20)"/><polygon points="304.2,167.6 337,125 610,125 610,167.6 304.2,167.6" fill="rgba(46,160,67,.22)"/><line x1="64" y1="167.6" x2="610" y2="167.6" stroke="#8b949e" stroke-width="1.2"/><line x1="64" y1="54" x2="64" y2="338" stroke="#8b949e" stroke-width="1.2"/><text x="56" y="171.6" font-size="12" fill="#8b949e" text-anchor="end">0</text><polyline points="64,267 227.8,267 304.2,167.6" fill="none" stroke="#f85149" stroke-width="2" stroke-linejoin="round" stroke-linecap="round"/><polyline points="304.2,167.6 337,125 610,125" fill="none" stroke="#2ea043" stroke-width="2" stroke-linejoin="round" stroke-linecap="round"/><circle cx="304.2" cy="167.6" r="3.5" fill="#8b949e"/><text x="298.2" y="157.6" font-size="14" fill="#8b949e" text-anchor="end" font-weight="600">兩平 97</text><text x="610" y="378" font-size="14" fill="#8b949e" text-anchor="end">到期時股價</text><text transform="translate(17 196) rotate(-90)" text-anchor="middle" font-size="14" fill="#8b949e">損益</text></svg>