<svg xmlns="http://www.w3.org/2000/svg" viewBox="0 0 640 400" role="img" aria-label="Short Put 損益圖:最多賺權利金 5,兩平 95,股價跌到 0 時最大損失 95" font-family="system-ui, -apple-system, sans-serif"><defs><marker id="aI" viewBox="0 0 10 10" refX="8" refY="5" markerWidth="7" markerHeight="7" orient="auto-start-reverse"><path d="M0 0L10 5L0 10z" fill="#8b949e"/></marker><marker id="aG" viewBox="0 0 10 10" refX="8" refY="5" markerWidth="7" markerHeight="7" orient="auto-start-reverse"><path d="M0 0L10 5L0 10z" fill="#2ea043"/></marker><marker id="aR" viewBox="0 0 10 10" refX="8" refY="5" markerWidth="7" markerHeight="7" orient="auto-start-reverse"><path d="M0 0L10 5L0 10z" fill="#f85149"/></marker></defs><text x="320" y="24" font-size="16" fill="#8b949e" text-anchor="middle" font-weight="600">賣出賣權 Short Put(K=100,收權利金 5)</text><text x="320" y="42" font-size="12" fill="#8b949e" text-anchor="middle">最多只賺權利金(+5);務必備妥現金(cash-secured),不做裸賣 put</text><line x1="64" y1="101.3" x2="610" y2="101.3" stroke="#2ea043" stroke-width="1" stroke-dasharray="4 4" opacity=".55"/><text x="56" y="106.3" font-size="16" fill="#2ea043" text-anchor="end" font-weight="600">+5</text><line x1="337" y1="54" x2="337" y2="338" stroke="#8b949e" stroke-width="1" stroke-dasharray="4 4"/><text x="337" y="355" font-size="13" fill="#8b949e" text-anchor="middle">K=100</text><polygon points="64,304.2 291.5,135.1 291.5,135.1 64,135.1" fill="rgba(248,81,73,.20)"/><polygon points="291.5,135.1 337,101.3 610,101.3 610,135.1 291.5,135.1" fill="rgba(46,160,67,.22)"/><line x1="64" y1="135.1" x2="610" y2="135.1" stroke="#8b949e" stroke-width="1.2"/><line x1="64" y1="54" x2="64" y2="338" stroke="#8b949e" stroke-width="1.2"/><text x="56" y="139.1" font-size="12" fill="#8b949e" text-anchor="end">0</text><polyline points="64,304.2 291.5,135.1" fill="none" stroke="#f85149" stroke-width="2" stroke-linejoin="round" stroke-linecap="round"/><polyline points="291.5,135.1 337,101.3 610,101.3" fill="none" stroke="#2ea043" stroke-width="2" stroke-linejoin="round" stroke-linecap="round"/><circle cx="291.5" cy="135.1" r="3.5" fill="#8b949e"/><text x="284.5" y="125.1" font-size="14" fill="#8b949e" text-anchor="end" font-weight="600">兩平 95</text><text x="136.8" y="317.7" font-size="13" fill="#f85149" text-anchor="start">最大損失=K−權利金=95(股價跌到 0)</text><text x="610" y="378" font-size="14" fill="#8b949e" text-anchor="end">到期時股價</text><text transform="translate(17 196) rotate(-90)" text-anchor="middle" font-size="14" fill="#8b949e">損益</text></svg>